<?xml version="1.0" encoding="UTF-8" standalone="no"?>
<svg
   xmlns:dc="http://purl.org/dc/elements/1.1/"
   xmlns:cc="http://creativecommons.org/ns#"
   xmlns:rdf="http://www.w3.org/1999/02/22-rdf-syntax-ns#"
   xmlns:svg="http://www.w3.org/2000/svg"
   xmlns="http://www.w3.org/2000/svg"
   xmlns:sodipodi="http://sodipodi.sourceforge.net/DTD/sodipodi-0.dtd"
   xmlns:inkscape="http://www.inkscape.org/namespaces/inkscape"
   inkscape:export-ydpi="96"
   inkscape:export-xdpi="96"
   inkscape:export-filename="/Users/stevewiley/src/MonMem/MonMem/MonMem/Assets.xcassets/Icon22x22.png"
   sodipodi:docname="Icon.svg"
   inkscape:version="1.0beta2 (2b71d25, 2019-12-03)"
   id="svg8"
   version="1.1"
   viewBox="0 0 5.8208332 5.8208335"
   height="22"
   width="22">
  <defs
     id="defs2">
    <inkscape:path-effect
       background_color="#ffffffff"
       background="true"
       hide_mask="false"
       invert="false"
       uri="#mask-powermask-path-effect1230"
       lpeversion="1"
       is_visible="true"
       id="path-effect1230"
       effect="powermask" />
    <inkscape:path-effect
       background_color="#ffffffff"
       background="true"
       hide_mask="false"
       invert="false"
       uri="#mask-powermask-path-effect1154"
       lpeversion="1"
       is_visible="true"
       id="path-effect1213"
       effect="powermask" />
    <inkscape:path-effect
       background_color="#ffffffff"
       background="true"
       hide_mask="false"
       invert="false"
       uri=""
       lpeversion="1"
       is_visible="true"
       id="path-effect1159"
       effect="powermask" />
    <inkscape:path-effect
       background_color="#ffffffff"
       background="true"
       hide_mask="false"
       invert="false"
       uri="#mask-powermask-path-effect1154"
       lpeversion="1"
       is_visible="true"
       id="path-effect1154"
       effect="powermask" />
    <inkscape:path-effect
       background_color="#ffffffff"
       background="true"
       hide_mask="false"
       invert="false"
       uri=""
       lpeversion="1"
       is_visible="true"
       id="path-effect1116"
       effect="powermask" />
    <inkscape:path-effect
       background_color="#ffffffff"
       background="true"
       hide_mask="false"
       invert="false"
       uri=""
       lpeversion="1"
       is_visible="true"
       id="path-effect1083"
       effect="powermask" />
    <inkscape:path-effect
       background_color="#ffffffff"
       background="true"
       hide_mask="false"
       invert="false"
       uri=""
       lpeversion="1"
       is_visible="true"
       id="path-effect1047"
       effect="powermask" />
    <inkscape:path-effect
       background_color="#ffffffff"
       background="true"
       hide_mask="false"
       invert="false"
       uri=""
       lpeversion="1"
       is_visible="true"
       id="path-effect1038"
       effect="powermask" />
    <inkscape:path-effect
       background_color="#ffffffff"
       background="true"
       hide_mask="false"
       invert="false"
       uri=""
       lpeversion="1"
       is_visible="true"
       id="path-effect1021"
       effect="powermask" />
    <inkscape:path-effect
       background_color="#ffffffff"
       background="true"
       hide_mask="false"
       invert="false"
       uri=""
       lpeversion="1"
       is_visible="true"
       id="path-effect1004"
       effect="powermask" />
    <inkscape:path-effect
       background_color="#ffffffff"
       background="true"
       hide_mask="false"
       invert="false"
       uri=""
       lpeversion="1"
       is_visible="true"
       id="path-effect990"
       effect="powermask" />
    <inkscape:path-effect
       message="Use fill-rule evenodd on &lt;b&gt;fill and stroke&lt;/b&gt; dialog if no flatten result after convert clip to paths."
       hide_clip="false"
       flatten="false"
       inverse="true"
       lpeversion="1"
       is_visible="true"
       id="path-effect973"
       effect="powerclip" />
    <inkscape:path-effect
       message="Use fill-rule evenodd on &lt;b&gt;fill and stroke&lt;/b&gt; dialog if no flatten result after convert clip to paths."
       hide_clip="false"
       flatten="false"
       inverse="true"
       lpeversion="1"
       is_visible="true"
       id="path-effect965"
       effect="powerclip" />
    <clipPath
       id="clipPath961"
       clipPathUnits="userSpaceOnUse">
      <path
         inkscape:connector-curvature="0"
         style="color:#000000;font-style:normal;font-variant:normal;font-weight:normal;font-stretch:normal;font-size:medium;line-height:normal;font-family:sans-serif;font-variant-ligatures:normal;font-variant-position:normal;font-variant-caps:normal;font-variant-numeric:normal;font-variant-alternates:normal;font-variant-east-asian:normal;font-feature-settings:normal;font-variation-settings:normal;text-indent:0;text-align:start;text-decoration:none;text-decoration-line:none;text-decoration-style:solid;text-decoration-color:#000000;letter-spacing:normal;word-spacing:normal;text-transform:none;writing-mode:lr-tb;direction:ltr;text-orientation:mixed;dominant-baseline:auto;baseline-shift:baseline;text-anchor:start;white-space:normal;shape-padding:0;shape-margin:0;inline-size:0;clip-rule:nonzero;display:none;overflow:visible;visibility:visible;opacity:1;isolation:auto;mix-blend-mode:normal;color-interpolation:sRGB;color-interpolation-filters:linearRGB;solid-color:#000000;solid-opacity:1;vector-effect:none;fill:#000000;fill-opacity:1;fill-rule:nonzero;stroke:none;stroke-width:0.396875;stroke-linecap:butt;stroke-linejoin:miter;stroke-miterlimit:4;stroke-dasharray:none;stroke-dashoffset:0;stroke-opacity:1;color-rendering:auto;image-rendering:auto;shape-rendering:auto;text-rendering:auto;enable-background:accumulate;stop-color:#000000;stop-opacity:1"
         d="M 2.4453125,3.3125 1.8105469,3.9140625 1.5,3.5917968 1.2128906,3.8652344 1.7949219,4.4746093 2.716797,3.6015626 Z"
         id="path963" />
      <path
         inkscape:connector-curvature="0"
         d="M -3.1557727,-3.3031687 H 10.019315 V 9.0781687 H -3.1557727 Z M 2.4453125,3.3125 1.8105469,3.9140625 1.5,3.5917968 1.2128906,3.8652344 1.7949219,4.4746093 2.716797,3.6015626 Z"
         class="powerclip"
         style="fill-rule:evenodd"
         id="lpe_path-effect965" />
    </clipPath>
    <filter
       y="-50"
       x="-50"
       width="100"
       height="100"
       style="color-interpolation-filters:sRGB"
       inkscape:label="filtermask-powermask-path-effect990"
       id="mask-powermask-path-effect990_inverse">
      <feColorMatrix
         result="fbSourceGraphic"
         type="saturate"
         values="1"
         id="mask-powermask-path-effect990_primitive1" />
      <feColorMatrix
         in="fbSourceGraphic"
         values="-1 0 0 0 1 0 -1 0 0 1 0 0 -1 0 1 0 0 0 1 0 "
         id="mask-powermask-path-effect990_primitive2" />
    </filter>
    <mask
       maskUnits="userSpaceOnUse"
       id="mask-powermask-path-effect1004">
      <path
         id="path1006"
         style="display:inline;fill:none;fill-opacity:1;stroke:#ff69ff;stroke-width:0.0264583;stroke-miterlimit:4;stroke-dasharray:none;stroke-opacity:1"
         d="m 1.995227,2.6261962 c -0.1580156,0 -0.3159999,0.031514 -0.4619873,0.091984 -0.1459874,0.06047 -0.2799734,0.1497489 -0.3917073,0.261483 -0.111734,0.1117338 -0.20101284,0.2457198 -0.26148278,0.3917074 -0.0604699,0.1459873 -0.0919841,0.3039716 -0.091984,0.4619871 -5e-8,0.1580158 0.0315141,0.3160001 0.091984,0.4619874 0.0604699,0.1459873 0.14974878,0.2799733 0.26148278,0.3917074 0.1117339,0.1117338 0.2457199,0.2010127 0.3917073,0.2614827 0.1459874,0.06047 0.3039717,0.091984 0.4619873,0.091984 0.1580157,2e-7 0.3159999,-0.031514 0.4619873,-0.091984 0.1459874,-0.06047 0.2799736,-0.1497489 0.3917074,-0.2614827 0.1117341,-0.1117341 0.2010129,-0.2457201 0.2614827,-0.3917074 0.06047,-0.1459873 0.091984,-0.3039716 0.091984,-0.4619874 0,-0.1580155 -0.031514,-0.3159998 -0.091984,-0.4619871 C 3.0499346,3.225383 2.9606558,3.091397 2.8489217,2.9796632 2.7371879,2.8679291 2.6032017,2.7786502 2.4572143,2.7181805 2.3112269,2.6577105 2.1532426,2.6261962 1.995227,2.6261962 Z"
         inkscape:connector-curvature="0"
         sodipodi:nodetypes="sccssscscsscscccs" />
    </mask>
    <mask
       id="mask-powermask-path-effect990"
       maskUnits="userSpaceOnUse">
      <path
         sodipodi:nodetypes="sccssscscsscscccs"
         inkscape:connector-curvature="0"
         d="m 1.995227,2.6261962 c -0.1580156,0 -0.3159999,0.031514 -0.4619873,0.091984 -0.1459874,0.06047 -0.2799734,0.1497489 -0.3917073,0.261483 -0.111734,0.1117338 -0.20101284,0.2457198 -0.26148278,0.3917074 -0.0604699,0.1459873 -0.0919841,0.3039716 -0.091984,0.4619871 -5e-8,0.1580158 0.0315141,0.3160001 0.091984,0.4619874 0.0604699,0.1459873 0.14974878,0.2799733 0.26148278,0.3917074 0.1117339,0.1117338 0.2457199,0.2010127 0.3917073,0.2614827 0.1459874,0.06047 0.3039717,0.091984 0.4619873,0.091984 0.1580157,2e-7 0.3159999,-0.031514 0.4619873,-0.091984 0.1459874,-0.06047 0.2799736,-0.1497489 0.3917074,-0.2614827 0.1117341,-0.1117341 0.2010129,-0.2457201 0.2614827,-0.3917074 0.06047,-0.1459873 0.091984,-0.3039716 0.091984,-0.4619874 0,-0.1580155 -0.031514,-0.3159998 -0.091984,-0.4619871 C 3.0499346,3.225383 2.9606558,3.091397 2.8489217,2.9796632 2.7371879,2.8679291 2.6032017,2.7786502 2.4572143,2.7181805 2.3112269,2.6577105 2.1532426,2.6261962 1.995227,2.6261962 Z"
         style="display:inline;fill:none;fill-opacity:1;stroke:#ff69ff;stroke-width:0.0264583;stroke-miterlimit:4;stroke-dasharray:none;stroke-opacity:1"
         id="path1011" />
      <path
         id="path1013"
         style="fill:#ffffff;fill-opacity:1"
         d="M 0.84422729,0.69683129 H 6.0193145 V 5.0781687 H 0.84422729 Z" />
    </mask>
    <filter
       y="-50"
       x="-50"
       width="100"
       height="100"
       style="color-interpolation-filters:sRGB"
       inkscape:label="filtermask-powermask-path-effect1004"
       id="mask-powermask-path-effect1004_inverse">
      <feColorMatrix
         result="fbSourceGraphic"
         type="saturate"
         values="1"
         id="mask-powermask-path-effect1004_primitive1" />
      <feColorMatrix
         in="fbSourceGraphic"
         values="-1 0 0 0 1 0 -1 0 0 1 0 0 -1 0 1 0 0 0 1 0 "
         id="mask-powermask-path-effect1004_primitive2" />
    </filter>
    <filter
       y="-50"
       x="-50"
       width="100"
       height="100"
       style="color-interpolation-filters:sRGB"
       inkscape:label="filtermask-powermask-path-effect1021"
       id="mask-powermask-path-effect1021_inverse">
      <feColorMatrix
         result="fbSourceGraphic"
         type="saturate"
         values="1"
         id="mask-powermask-path-effect1021_primitive1" />
      <feColorMatrix
         in="fbSourceGraphic"
         values="-1 0 0 0 1 0 -1 0 0 1 0 0 -1 0 1 0 0 0 1 0 "
         id="mask-powermask-path-effect1021_primitive2" />
    </filter>
    <filter
       y="-50"
       x="-50"
       width="100"
       height="100"
       style="color-interpolation-filters:sRGB"
       inkscape:label="filtermask-powermask-path-effect1038"
       id="mask-powermask-path-effect1038_inverse">
      <feColorMatrix
         result="fbSourceGraphic"
         type="saturate"
         values="1"
         id="mask-powermask-path-effect1038_primitive1" />
      <feColorMatrix
         in="fbSourceGraphic"
         values="-1 0 0 0 1 0 -1 0 0 1 0 0 -1 0 1 0 0 0 1 0 "
         id="mask-powermask-path-effect1038_primitive2" />
    </filter>
    <mask
       maskUnits="userSpaceOnUse"
       id="mask-powermask-path-effect1047">
      <path
         id="path1049"
         style="display:inline;fill:none;fill-opacity:1;stroke:#ff69ff;stroke-width:0.4;stroke-miterlimit:4;stroke-dasharray:none;stroke-opacity:1"
         sodipodi:type="inkscape:offset"
         inkscape:radius="0.14405894"
         inkscape:original="M 7.5410156 9.9257812 C 6.9437912 9.925781 6.3466853 10.04489 5.7949219 10.273438 C 5.2431584 10.501985 4.7367545 10.839417 4.3144531 11.261719 C 3.8921517 11.68402 3.5547197 12.190423 3.3261719 12.742188 C 3.0976241 13.29395 2.9785154 13.891057 2.9785156 14.488281 C 2.9785154 15.085506 3.0976241 15.682612 3.3261719 16.234375 C 3.5547196 16.786138 3.8921517 17.292542 4.3144531 17.714844 C 4.7367545 18.137145 5.2431584 18.474577 5.7949219 18.703125 C 6.3466853 18.931673 6.9437912 19.050782 7.5410156 19.050781 C 8.1382401 19.050782 8.7353459 18.931673 9.2871094 18.703125 C 9.8388729 18.474577 10.345277 18.137145 10.767578 17.714844 C 11.18988 17.292542 11.527312 16.786138 11.755859 16.234375 C 11.984407 15.682612 12.103516 15.085506 12.103516 14.488281 C 12.103516 13.891057 11.984407 13.293951 11.755859 12.742188 C 11.527312 12.190423 11.18988 11.68402 10.767578 11.261719 C 10.345277 10.839417 9.8388729 10.501985 9.2871094 10.273438 C 8.7353459 10.04489 8.13824 9.925781 7.5410156 9.9257812 z "
         d="m 7.5410156,9.78125 c -0.6163783,-2e-7 -1.2314184,0.1235371 -1.8007812,0.359375 -0.5692879,0.235806 -1.0914562,0.583643 -1.5273438,1.019531 -0.4358875,0.435887 -0.7837246,0.958055 -1.0195312,1.527344 -0.2358379,0.569362 -0.3593752,1.184403 -0.359375,1.800781 -2e-7,0.616379 0.1235372,1.231419 0.359375,1.800781 0.2358065,0.569288 0.5836438,1.091456 1.0195312,1.527344 0.4358875,0.435887 0.958056,0.783725 1.5273438,1.019532 0.5693628,0.235837 1.1844028,0.359376 1.8007812,0.359374 0.6163785,2e-6 1.2314183,-0.123537 1.8007813,-0.359374 0.5692877,-0.235807 1.0914561,-0.583645 1.5273441,-1.019532 0.435888,-0.435888 0.783725,-0.958056 1.019531,-1.527344 0.235838,-0.569362 0.359375,-1.184402 0.359375,-1.800781 0,-0.616378 -0.123537,-1.231418 -0.359375,-1.800781 C 11.652866,12.11821 11.305029,11.596043 10.869141,11.160156 10.433253,10.724268 9.9110848,10.376431 9.3417969,10.140625 8.7724339,9.9047871 8.1573939,9.7812498 7.5410156,9.78125 Z" />
    </mask>
    <mask
       id="mask-powermask-path-effect1021"
       maskUnits="userSpaceOnUse">
      <path
         d="m 7.5410156,9.78125 c -0.6163783,-2e-7 -1.2314184,0.1235371 -1.8007812,0.359375 -0.5692879,0.235806 -1.0914562,0.583643 -1.5273438,1.019531 -0.4358875,0.435887 -0.7837246,0.958055 -1.0195312,1.527344 -0.2358379,0.569362 -0.3593752,1.184403 -0.359375,1.800781 -2e-7,0.616379 0.1235372,1.231419 0.359375,1.800781 0.2358065,0.569288 0.5836438,1.091456 1.0195312,1.527344 0.4358875,0.435887 0.958056,0.783725 1.5273438,1.019532 0.5693628,0.235837 1.1844028,0.359376 1.8007812,0.359374 0.6163785,2e-6 1.2314183,-0.123537 1.8007813,-0.359374 0.5692877,-0.235807 1.0914561,-0.583645 1.5273441,-1.019532 0.435888,-0.435888 0.783725,-0.958056 1.019531,-1.527344 0.235838,-0.569362 0.359375,-1.184402 0.359375,-1.800781 0,-0.616378 -0.123537,-1.231418 -0.359375,-1.800781 C 11.652866,12.11821 11.305029,11.596043 10.869141,11.160156 10.433253,10.724268 9.9110848,10.376431 9.3417969,10.140625 8.7724339,9.9047871 8.1573939,9.7812498 7.5410156,9.78125 Z"
         inkscape:original="M 7.5410156 9.9257812 C 6.9437912 9.925781 6.3466853 10.04489 5.7949219 10.273438 C 5.2431584 10.501985 4.7367545 10.839417 4.3144531 11.261719 C 3.8921517 11.68402 3.5547197 12.190423 3.3261719 12.742188 C 3.0976241 13.29395 2.9785154 13.891057 2.9785156 14.488281 C 2.9785154 15.085506 3.0976241 15.682612 3.3261719 16.234375 C 3.5547196 16.786138 3.8921517 17.292542 4.3144531 17.714844 C 4.7367545 18.137145 5.2431584 18.474577 5.7949219 18.703125 C 6.3466853 18.931673 6.9437912 19.050782 7.5410156 19.050781 C 8.1382401 19.050782 8.7353459 18.931673 9.2871094 18.703125 C 9.8388729 18.474577 10.345277 18.137145 10.767578 17.714844 C 11.18988 17.292542 11.527312 16.786138 11.755859 16.234375 C 11.984407 15.682612 12.103516 15.085506 12.103516 14.488281 C 12.103516 13.891057 11.984407 13.293951 11.755859 12.742188 C 11.527312 12.190423 11.18988 11.68402 10.767578 11.261719 C 10.345277 10.839417 9.8388729 10.501985 9.2871094 10.273438 C 8.7353459 10.04489 8.13824 9.925781 7.5410156 9.9257812 z "
         inkscape:radius="0.14405894"
         sodipodi:type="inkscape:offset"
         style="display:inline;fill:none;fill-opacity:1;stroke:#ff69ff;stroke-width:0.4;stroke-miterlimit:4;stroke-dasharray:none;stroke-opacity:1"
         id="path1054" />
      <path
         id="path1056"
         style="fill:#ffffff;fill-opacity:1"
         d="m 1.999835,1.999835 h 14.00033 v 11.00033 H 1.999835 Z" />
    </mask>
    <filter
       y="-50"
       x="-50"
       width="100"
       height="100"
       style="color-interpolation-filters:sRGB"
       inkscape:label="filtermask-powermask-path-effect1047"
       id="mask-powermask-path-effect1047_inverse">
      <feColorMatrix
         result="fbSourceGraphic"
         type="saturate"
         values="1"
         id="mask-powermask-path-effect1047_primitive1" />
      <feColorMatrix
         in="fbSourceGraphic"
         values="-1 0 0 0 1 0 -1 0 0 1 0 0 -1 0 1 0 0 0 1 0 "
         id="mask-powermask-path-effect1047_primitive2" />
    </filter>
    <mask
       maskUnits="userSpaceOnUse"
       id="mask-powermask-path-effect1083">
      <path
         id="path1087"
         style="display:inline;fill:none;fill-opacity:1;stroke:#ffffff;stroke-width:0.4;stroke-miterlimit:4;stroke-dasharray:none;stroke-opacity:1"
         sodipodi:type="inkscape:offset"
         inkscape:radius="0.14405894"
         inkscape:original="M 7.5410156 9.9257812 C 6.9437912 9.925781 6.3466853 10.04489 5.7949219 10.273438 C 5.2431584 10.501985 4.7367545 10.839417 4.3144531 11.261719 C 3.8921517 11.68402 3.5547197 12.190423 3.3261719 12.742188 C 3.0976241 13.29395 2.9785154 13.891057 2.9785156 14.488281 C 2.9785154 15.085506 3.0976241 15.682612 3.3261719 16.234375 C 3.5547196 16.786138 3.8921517 17.292542 4.3144531 17.714844 C 4.7367545 18.137145 5.2431584 18.474577 5.7949219 18.703125 C 6.3466853 18.931673 6.9437912 19.050782 7.5410156 19.050781 C 8.1382401 19.050782 8.7353459 18.931673 9.2871094 18.703125 C 9.8388729 18.474577 10.345277 18.137145 10.767578 17.714844 C 11.18988 17.292542 11.527312 16.786138 11.755859 16.234375 C 11.984407 15.682612 12.103516 15.085506 12.103516 14.488281 C 12.103516 13.891057 11.984407 13.293951 11.755859 12.742188 C 11.527312 12.190423 11.18988 11.68402 10.767578 11.261719 C 10.345277 10.839417 9.8388729 10.501985 9.2871094 10.273438 C 8.7353459 10.04489 8.13824 9.925781 7.5410156 9.9257812 z "
         d="m 7.5410156,9.78125 c -0.6163783,-2e-7 -1.2314184,0.1235371 -1.8007812,0.359375 -0.5692879,0.235806 -1.0914562,0.583643 -1.5273438,1.019531 -0.4358875,0.435887 -0.7837246,0.958055 -1.0195312,1.527344 -0.2358379,0.569362 -0.3593752,1.184403 -0.359375,1.800781 -2e-7,0.616379 0.1235372,1.231419 0.359375,1.800781 0.2358065,0.569288 0.5836438,1.091456 1.0195312,1.527344 0.4358875,0.435887 0.958056,0.783725 1.5273438,1.019532 0.5693628,0.235837 1.1844028,0.359376 1.8007812,0.359374 0.6163785,2e-6 1.2314183,-0.123537 1.8007813,-0.359374 0.5692877,-0.235807 1.0914561,-0.583645 1.5273441,-1.019532 0.435888,-0.435888 0.783725,-0.958056 1.019531,-1.527344 0.235838,-0.569362 0.359375,-1.184402 0.359375,-1.800781 0,-0.616378 -0.123537,-1.231418 -0.359375,-1.800781 C 11.652866,12.11821 11.305029,11.596043 10.869141,11.160156 10.433253,10.724268 9.9110848,10.376431 9.3417969,10.140625 8.7724339,9.9047871 8.1573939,9.7812498 7.5410156,9.78125 Z"
         transform="scale(0.26458333)" />
      <path
         d="M 0.84422729,0.69683129 H 6.0193145 V 5.0781687 H 0.84422729 Z"
         style="fill:#ffffff;fill-opacity:1"
         id="mask-powermask-path-effect1004_box" />
      <path
         d="M 0.84422729,0.69683129 H 6.0193145 V 5.0781687 H 0.84422729 Z"
         style="fill:#ffffff;fill-opacity:1"
         id="mask-powermask-path-effect990_box" />
      <path
         id="path1089"
         style="fill:#ffffff;fill-opacity:1"
         d="M 0.84422729,0.69683129 H 6.0193145 V 5.0781687 H 0.84422729 Z" />
      <path
         id="path1091"
         style="fill:#ffffff;fill-opacity:1"
         d="M 0.84422729,0.69683129 H 6.0193145 V 5.0781687 H 0.84422729 Z" />
    </mask>
    <mask
       id="mask-powermask-path-effect1038"
       maskUnits="userSpaceOnUse">
      <path
         transform="scale(0.26458333)"
         d="m 7.5410156,9.78125 c -0.6163783,-2e-7 -1.2314184,0.1235371 -1.8007812,0.359375 -0.5692879,0.235806 -1.0914562,0.583643 -1.5273438,1.019531 -0.4358875,0.435887 -0.7837246,0.958055 -1.0195312,1.527344 -0.2358379,0.569362 -0.3593752,1.184403 -0.359375,1.800781 -2e-7,0.616379 0.1235372,1.231419 0.359375,1.800781 0.2358065,0.569288 0.5836438,1.091456 1.0195312,1.527344 0.4358875,0.435887 0.958056,0.783725 1.5273438,1.019532 0.5693628,0.235837 1.1844028,0.359376 1.8007812,0.359374 0.6163785,2e-6 1.2314183,-0.123537 1.8007813,-0.359374 0.5692877,-0.235807 1.0914561,-0.583645 1.5273441,-1.019532 0.435888,-0.435888 0.783725,-0.958056 1.019531,-1.527344 0.235838,-0.569362 0.359375,-1.184402 0.359375,-1.800781 0,-0.616378 -0.123537,-1.231418 -0.359375,-1.800781 C 11.652866,12.11821 11.305029,11.596043 10.869141,11.160156 10.433253,10.724268 9.9110848,10.376431 9.3417969,10.140625 8.7724339,9.9047871 8.1573939,9.7812498 7.5410156,9.78125 Z"
         inkscape:original="M 7.5410156 9.9257812 C 6.9437912 9.925781 6.3466853 10.04489 5.7949219 10.273438 C 5.2431584 10.501985 4.7367545 10.839417 4.3144531 11.261719 C 3.8921517 11.68402 3.5547197 12.190423 3.3261719 12.742188 C 3.0976241 13.29395 2.9785154 13.891057 2.9785156 14.488281 C 2.9785154 15.085506 3.0976241 15.682612 3.3261719 16.234375 C 3.5547196 16.786138 3.8921517 17.292542 4.3144531 17.714844 C 4.7367545 18.137145 5.2431584 18.474577 5.7949219 18.703125 C 6.3466853 18.931673 6.9437912 19.050782 7.5410156 19.050781 C 8.1382401 19.050782 8.7353459 18.931673 9.2871094 18.703125 C 9.8388729 18.474577 10.345277 18.137145 10.767578 17.714844 C 11.18988 17.292542 11.527312 16.786138 11.755859 16.234375 C 11.984407 15.682612 12.103516 15.085506 12.103516 14.488281 C 12.103516 13.891057 11.984407 13.293951 11.755859 12.742188 C 11.527312 12.190423 11.18988 11.68402 10.767578 11.261719 C 10.345277 10.839417 9.8388729 10.501985 9.2871094 10.273438 C 8.7353459 10.04489 8.13824 9.925781 7.5410156 9.9257812 z "
         inkscape:radius="0.14405894"
         sodipodi:type="inkscape:offset"
         style="display:inline;fill:none;fill-opacity:1;stroke:#ffffff;stroke-width:0.4;stroke-miterlimit:4;stroke-dasharray:none;stroke-opacity:1"
         id="path1098" />
      <path
         d="M 0.84422729,0.69683129 H 6.0193145 V 5.0781687 H 0.84422729 Z"
         style="fill:#ffffff;fill-opacity:1"
         id="mask-powermask-path-effect1038_box" />
      <path
         id="path1100"
         style="fill:#ffffff;fill-opacity:1"
         d="M 0.84422729,0.69683129 H 6.0193145 V 5.0781687 H 0.84422729 Z" />
      <path
         id="path1102"
         style="fill:#ffffff;fill-opacity:1"
         d="M 0.84422729,0.69683129 H 6.0193145 V 5.0781687 H 0.84422729 Z" />
      <path
         id="path1104"
         style="fill:#ffffff;fill-opacity:1"
         d="M 0.84422729,0.69683129 H 6.0193145 V 5.0781687 H 0.84422729 Z" />
      <path
         d="M 0.84422729,0.69683129 H 6.0193145 V 5.0781687 H 0.84422729 Z"
         style="fill:#ffffff;fill-opacity:1"
         id="path1106" />
      <path
         d="M 0.84422729,0.69683129 H 6.0193145 V 5.0781687 H 0.84422729 Z"
         style="fill:#ffffff;fill-opacity:1"
         id="path1108" />
    </mask>
    <filter
       y="-50"
       x="-50"
       width="100"
       height="100"
       style="color-interpolation-filters:sRGB"
       inkscape:label="filtermask-powermask-path-effect1083"
       id="mask-powermask-path-effect1083_inverse">
      <feColorMatrix
         result="fbSourceGraphic"
         type="saturate"
         values="1"
         id="mask-powermask-path-effect1083_primitive1" />
      <feColorMatrix
         in="fbSourceGraphic"
         values="-1 0 0 0 1 0 -1 0 0 1 0 0 -1 0 1 0 0 0 1 0 "
         id="mask-powermask-path-effect1083_primitive2" />
    </filter>
    <filter
       y="-50"
       x="-50"
       width="100"
       height="100"
       style="color-interpolation-filters:sRGB"
       inkscape:label="filtermask-powermask-path-effect1116"
       id="mask-powermask-path-effect1116_inverse">
      <feColorMatrix
         result="fbSourceGraphic"
         type="saturate"
         values="1"
         id="mask-powermask-path-effect1116_primitive1" />
      <feColorMatrix
         in="fbSourceGraphic"
         values="-1 0 0 0 1 0 -1 0 0 1 0 0 -1 0 1 0 0 0 1 0 "
         id="mask-powermask-path-effect1116_primitive2" />
    </filter>
    <filter
       y="-50"
       x="-50"
       width="100"
       height="100"
       style="color-interpolation-filters:sRGB"
       inkscape:label="filtermask-powermask-path-effect1154"
       id="mask-powermask-path-effect1154_inverse">
      <feColorMatrix
         result="fbSourceGraphic"
         type="saturate"
         values="1"
         id="mask-powermask-path-effect1154_primitive1" />
      <feColorMatrix
         in="fbSourceGraphic"
         values="-1 0 0 0 1 0 -1 0 0 1 0 0 -1 0 1 0 0 0 1 0 "
         id="mask-powermask-path-effect1154_primitive2" />
    </filter>
    <mask
       maskUnits="userSpaceOnUse"
       id="mask-powermask-path-effect1159">
      <path
         id="path1163"
         style="display:inline;fill:none;fill-opacity:1;stroke:#ffffff;stroke-width:0.4;stroke-miterlimit:4;stroke-dasharray:none;stroke-opacity:1"
         sodipodi:type="inkscape:offset"
         inkscape:radius="0.14405894"
         inkscape:original="M 7.5410156 9.9257812 C 6.9437912 9.925781 6.3466853 10.04489 5.7949219 10.273438 C 5.2431584 10.501985 4.7367545 10.839417 4.3144531 11.261719 C 3.8921517 11.68402 3.5547197 12.190423 3.3261719 12.742188 C 3.0976241 13.29395 2.9785154 13.891057 2.9785156 14.488281 C 2.9785154 15.085506 3.0976241 15.682612 3.3261719 16.234375 C 3.5547196 16.786138 3.8921517 17.292542 4.3144531 17.714844 C 4.7367545 18.137145 5.2431584 18.474577 5.7949219 18.703125 C 6.3466853 18.931673 6.9437912 19.050782 7.5410156 19.050781 C 8.1382401 19.050782 8.7353459 18.931673 9.2871094 18.703125 C 9.8388729 18.474577 10.345277 18.137145 10.767578 17.714844 C 11.18988 17.292542 11.527312 16.786138 11.755859 16.234375 C 11.984407 15.682612 12.103516 15.085506 12.103516 14.488281 C 12.103516 13.891057 11.984407 13.293951 11.755859 12.742188 C 11.527312 12.190423 11.18988 11.68402 10.767578 11.261719 C 10.345277 10.839417 9.8388729 10.501985 9.2871094 10.273438 C 8.7353459 10.04489 8.13824 9.925781 7.5410156 9.9257812 z "
         d="m 7.5410156,9.78125 c -0.6163783,-2e-7 -1.2314184,0.1235371 -1.8007812,0.359375 -0.5692879,0.235806 -1.0914562,0.583643 -1.5273438,1.019531 -0.4358875,0.435887 -0.7837246,0.958055 -1.0195312,1.527344 -0.2358379,0.569362 -0.3593752,1.184403 -0.359375,1.800781 -2e-7,0.616379 0.1235372,1.231419 0.359375,1.800781 0.2358065,0.569288 0.5836438,1.091456 1.0195312,1.527344 0.4358875,0.435887 0.958056,0.783725 1.5273438,1.019532 0.5693628,0.235837 1.1844028,0.359376 1.8007812,0.359374 0.6163785,2e-6 1.2314183,-0.123537 1.8007813,-0.359374 0.5692877,-0.235807 1.0914561,-0.583645 1.5273441,-1.019532 0.435888,-0.435888 0.783725,-0.958056 1.019531,-1.527344 0.235838,-0.569362 0.359375,-1.184402 0.359375,-1.800781 0,-0.616378 -0.123537,-1.231418 -0.359375,-1.800781 C 11.652866,12.11821 11.305029,11.596043 10.869141,11.160156 10.433253,10.724268 9.9110848,10.376431 9.3417969,10.140625 8.7724339,9.9047871 8.1573939,9.7812498 7.5410156,9.78125 Z" />
      <path
         d="m 1.999835,1.999835 h 14.00033 v 11.00033 H 1.999835 Z"
         style="fill:#ffffff;fill-opacity:1"
         id="mask-powermask-path-effect1047_box" />
      <path
         d="m 1.999835,1.999835 h 14.00033 v 11.00033 H 1.999835 Z"
         style="fill:#ffffff;fill-opacity:1"
         id="mask-powermask-path-effect1021_box" />
      <path
         id="path1165"
         style="fill:#ffffff;fill-opacity:1"
         d="m 1.999835,1.999835 h 14.00033 v 11.00033 H 1.999835 Z" />
      <path
         id="path1167"
         style="fill:#ffffff;fill-opacity:1"
         d="m 1.999835,1.999835 h 14.00033 v 11.00033 H 1.999835 Z" />
    </mask>
    <mask
       id="mask-powermask-path-effect1116"
       maskUnits="userSpaceOnUse">
      <path
         d="m 7.5410156,9.78125 c -0.6163783,-2e-7 -1.2314184,0.1235371 -1.8007812,0.359375 -0.5692879,0.235806 -1.0914562,0.583643 -1.5273438,1.019531 -0.4358875,0.435887 -0.7837246,0.958055 -1.0195312,1.527344 -0.2358379,0.569362 -0.3593752,1.184403 -0.359375,1.800781 -2e-7,0.616379 0.1235372,1.231419 0.359375,1.800781 0.2358065,0.569288 0.5836438,1.091456 1.0195312,1.527344 0.4358875,0.435887 0.958056,0.783725 1.5273438,1.019532 0.5693628,0.235837 1.1844028,0.359376 1.8007812,0.359374 0.6163785,2e-6 1.2314183,-0.123537 1.8007813,-0.359374 0.5692877,-0.235807 1.0914561,-0.583645 1.5273441,-1.019532 0.435888,-0.435888 0.783725,-0.958056 1.019531,-1.527344 0.235838,-0.569362 0.359375,-1.184402 0.359375,-1.800781 0,-0.616378 -0.123537,-1.231418 -0.359375,-1.800781 C 11.652866,12.11821 11.305029,11.596043 10.869141,11.160156 10.433253,10.724268 9.9110848,10.376431 9.3417969,10.140625 8.7724339,9.9047871 8.1573939,9.7812498 7.5410156,9.78125 Z"
         inkscape:original="M 7.5410156 9.9257812 C 6.9437912 9.925781 6.3466853 10.04489 5.7949219 10.273438 C 5.2431584 10.501985 4.7367545 10.839417 4.3144531 11.261719 C 3.8921517 11.68402 3.5547197 12.190423 3.3261719 12.742188 C 3.0976241 13.29395 2.9785154 13.891057 2.9785156 14.488281 C 2.9785154 15.085506 3.0976241 15.682612 3.3261719 16.234375 C 3.5547196 16.786138 3.8921517 17.292542 4.3144531 17.714844 C 4.7367545 18.137145 5.2431584 18.474577 5.7949219 18.703125 C 6.3466853 18.931673 6.9437912 19.050782 7.5410156 19.050781 C 8.1382401 19.050782 8.7353459 18.931673 9.2871094 18.703125 C 9.8388729 18.474577 10.345277 18.137145 10.767578 17.714844 C 11.18988 17.292542 11.527312 16.786138 11.755859 16.234375 C 11.984407 15.682612 12.103516 15.085506 12.103516 14.488281 C 12.103516 13.891057 11.984407 13.293951 11.755859 12.742188 C 11.527312 12.190423 11.18988 11.68402 10.767578 11.261719 C 10.345277 10.839417 9.8388729 10.501985 9.2871094 10.273438 C 8.7353459 10.04489 8.13824 9.925781 7.5410156 9.9257812 z "
         inkscape:radius="0.14405894"
         sodipodi:type="inkscape:offset"
         style="display:inline;fill:none;fill-opacity:1;stroke:#ffffff;stroke-width:0.4;stroke-miterlimit:4;stroke-dasharray:none;stroke-opacity:1"
         id="path1174" />
      <path
         d="m 1.999835,1.999835 h 14.00033 v 11.00033 H 1.999835 Z"
         style="fill:#ffffff;fill-opacity:1"
         id="mask-powermask-path-effect1116_box" />
      <path
         id="path1176"
         style="fill:#ffffff;fill-opacity:1"
         d="m 1.999835,1.999835 h 14.00033 v 11.00033 H 1.999835 Z" />
      <path
         id="path1178"
         style="fill:#ffffff;fill-opacity:1"
         d="m 1.999835,1.999835 h 14.00033 v 11.00033 H 1.999835 Z" />
      <path
         id="path1180"
         style="fill:#ffffff;fill-opacity:1"
         d="m 1.999835,1.999835 h 14.00033 v 11.00033 H 1.999835 Z" />
      <path
         d="m 1.999835,1.999835 h 14.00033 v 11.00033 H 1.999835 Z"
         style="fill:#ffffff;fill-opacity:1"
         id="path1182" />
      <path
         d="m 1.999835,1.999835 h 14.00033 v 11.00033 H 1.999835 Z"
         style="fill:#ffffff;fill-opacity:1"
         id="path1184" />
    </mask>
    <filter
       y="-50"
       x="-50"
       width="100"
       height="100"
       style="color-interpolation-filters:sRGB"
       inkscape:label="filtermask-powermask-path-effect1159"
       id="mask-powermask-path-effect1159_inverse">
      <feColorMatrix
         result="fbSourceGraphic"
         type="saturate"
         values="1"
         id="mask-powermask-path-effect1159_primitive1" />
      <feColorMatrix
         in="fbSourceGraphic"
         values="-1 0 0 0 1 0 -1 0 0 1 0 0 -1 0 1 0 0 0 1 0 "
         id="mask-powermask-path-effect1159_primitive2" />
    </filter>
    <mask
       id="mask1205"
       maskUnits="userSpaceOnUse">
      <path
         transform="scale(0.26458333)"
         d="m 7.5410156,9.78125 c -0.6163783,-2e-7 -1.2314184,0.1235371 -1.8007812,0.359375 -0.5692879,0.235806 -1.0914562,0.583643 -1.5273438,1.019531 -0.4358875,0.435887 -0.7837246,0.958055 -1.0195312,1.527344 -0.2358379,0.569362 -0.3593752,1.184403 -0.359375,1.800781 -2e-7,0.616379 0.1235372,1.231419 0.359375,1.800781 0.2358065,0.569288 0.5836438,1.091456 1.0195312,1.527344 0.4358875,0.435887 0.958056,0.783725 1.5273438,1.019532 0.5693628,0.235837 1.1844028,0.359376 1.8007812,0.359374 0.6163785,2e-6 1.2314183,-0.123537 1.8007813,-0.359374 0.5692877,-0.235807 1.0914561,-0.583645 1.5273441,-1.019532 0.435888,-0.435888 0.783725,-0.958056 1.019531,-1.527344 0.235838,-0.569362 0.359375,-1.184402 0.359375,-1.800781 0,-0.616378 -0.123537,-1.231418 -0.359375,-1.800781 C 11.652866,12.11821 11.305029,11.596043 10.869141,11.160156 10.433253,10.724268 9.9110848,10.376431 9.3417969,10.140625 8.7724339,9.9047871 8.1573939,9.7812498 7.5410156,9.78125 Z"
         inkscape:original="M 7.5410156 9.9257812 C 6.9437912 9.925781 6.3466853 10.04489 5.7949219 10.273438 C 5.2431584 10.501985 4.7367545 10.839417 4.3144531 11.261719 C 3.8921517 11.68402 3.5547197 12.190423 3.3261719 12.742188 C 3.0976241 13.29395 2.9785154 13.891057 2.9785156 14.488281 C 2.9785154 15.085506 3.0976241 15.682612 3.3261719 16.234375 C 3.5547196 16.786138 3.8921517 17.292542 4.3144531 17.714844 C 4.7367545 18.137145 5.2431584 18.474577 5.7949219 18.703125 C 6.3466853 18.931673 6.9437912 19.050782 7.5410156 19.050781 C 8.1382401 19.050782 8.7353459 18.931673 9.2871094 18.703125 C 9.8388729 18.474577 10.345277 18.137145 10.767578 17.714844 C 11.18988 17.292542 11.527312 16.786138 11.755859 16.234375 C 11.984407 15.682612 12.103516 15.085506 12.103516 14.488281 C 12.103516 13.891057 11.984407 13.293951 11.755859 12.742188 C 11.527312 12.190423 11.18988 11.68402 10.767578 11.261719 C 10.345277 10.839417 9.8388729 10.501985 9.2871094 10.273438 C 8.7353459 10.04489 8.13824 9.925781 7.5410156 9.9257812 z "
         inkscape:radius="0.14405894"
         sodipodi:type="inkscape:offset"
         style="display:inline;fill:none;fill-opacity:1;stroke:#070707;stroke-width:0.4;stroke-miterlimit:4;stroke-dasharray:none;stroke-opacity:1"
         id="path1207" />
    </mask>
    <mask
       id="mask-powermask-path-effect1230"
       maskUnits="userSpaceOnUse">
      <path
         d="m 7.5410156,9.78125 c -0.6163783,-2e-7 -1.2314184,0.1235371 -1.8007812,0.359375 -0.5692879,0.235806 -1.0914562,0.583643 -1.5273438,1.019531 -0.4358875,0.435887 -0.7837246,0.958055 -1.0195312,1.527344 -0.2358379,0.569362 -0.3593752,1.184403 -0.359375,1.800781 -2e-7,0.616379 0.1235372,1.231419 0.359375,1.800781 0.2358065,0.569288 0.5836438,1.091456 1.0195312,1.527344 0.4358875,0.435887 0.958056,0.783725 1.5273438,1.019532 0.5693628,0.235837 1.1844028,0.359376 1.8007812,0.359374 0.6163785,2e-6 1.2314183,-0.123537 1.8007813,-0.359374 0.5692877,-0.235807 1.0914561,-0.583645 1.5273441,-1.019532 0.435888,-0.435888 0.783725,-0.958056 1.019531,-1.527344 0.235838,-0.569362 0.359375,-1.184402 0.359375,-1.800781 0,-0.616378 -0.123537,-1.231418 -0.359375,-1.800781 C 11.652866,12.11821 11.305029,11.596043 10.869141,11.160156 10.433253,10.724268 9.9110848,10.376431 9.3417969,10.140625 8.7724339,9.9047871 8.1573939,9.7812498 7.5410156,9.78125 Z"
         inkscape:original="M 7.5410156 9.9257812 C 6.9437912 9.925781 6.3466853 10.04489 5.7949219 10.273438 C 5.2431584 10.501985 4.7367545 10.839417 4.3144531 11.261719 C 3.8921517 11.68402 3.5547197 12.190423 3.3261719 12.742188 C 3.0976241 13.29395 2.9785154 13.891057 2.9785156 14.488281 C 2.9785154 15.085506 3.0976241 15.682612 3.3261719 16.234375 C 3.5547196 16.786138 3.8921517 17.292542 4.3144531 17.714844 C 4.7367545 18.137145 5.2431584 18.474577 5.7949219 18.703125 C 6.3466853 18.931673 6.9437912 19.050782 7.5410156 19.050781 C 8.1382401 19.050782 8.7353459 18.931673 9.2871094 18.703125 C 9.8388729 18.474577 10.345277 18.137145 10.767578 17.714844 C 11.18988 17.292542 11.527312 16.786138 11.755859 16.234375 C 11.984407 15.682612 12.103516 15.085506 12.103516 14.488281 C 12.103516 13.891057 11.984407 13.293951 11.755859 12.742188 C 11.527312 12.190423 11.18988 11.68402 10.767578 11.261719 C 10.345277 10.839417 9.8388729 10.501985 9.2871094 10.273438 C 8.7353459 10.04489 8.13824 9.925781 7.5410156 9.9257812 z "
         inkscape:radius="0.14405894"
         sodipodi:type="inkscape:offset"
         style="display:inline;fill:none;fill-opacity:1;stroke:#070707;stroke-width:0.4;stroke-miterlimit:4;stroke-dasharray:none;stroke-opacity:1"
         id="path1211" />
      <path
         d="m 1.999835,1.999835 h 14.00033 v 11.00033 H 1.999835 Z"
         style="fill:#ffffff;fill-opacity:1"
         id="mask-powermask-path-effect1230_box" />
    </mask>
    <mask
       maskUnits="userSpaceOnUse"
       id="mask-powermask-path-effect1213">
      <path
         id="path1215"
         style="display:inline;fill:none;fill-opacity:1;stroke:#070707;stroke-width:0.4;stroke-miterlimit:4;stroke-dasharray:none;stroke-opacity:1"
         sodipodi:type="inkscape:offset"
         inkscape:radius="0.14405894"
         inkscape:original="M 7.5410156 9.9257812 C 6.9437912 9.925781 6.3466853 10.04489 5.7949219 10.273438 C 5.2431584 10.501985 4.7367545 10.839417 4.3144531 11.261719 C 3.8921517 11.68402 3.5547197 12.190423 3.3261719 12.742188 C 3.0976241 13.29395 2.9785154 13.891057 2.9785156 14.488281 C 2.9785154 15.085506 3.0976241 15.682612 3.3261719 16.234375 C 3.5547196 16.786138 3.8921517 17.292542 4.3144531 17.714844 C 4.7367545 18.137145 5.2431584 18.474577 5.7949219 18.703125 C 6.3466853 18.931673 6.9437912 19.050782 7.5410156 19.050781 C 8.1382401 19.050782 8.7353459 18.931673 9.2871094 18.703125 C 9.8388729 18.474577 10.345277 18.137145 10.767578 17.714844 C 11.18988 17.292542 11.527312 16.786138 11.755859 16.234375 C 11.984407 15.682612 12.103516 15.085506 12.103516 14.488281 C 12.103516 13.891057 11.984407 13.293951 11.755859 12.742188 C 11.527312 12.190423 11.18988 11.68402 10.767578 11.261719 C 10.345277 10.839417 9.8388729 10.501985 9.2871094 10.273438 C 8.7353459 10.04489 8.13824 9.925781 7.5410156 9.9257812 z "
         d="m 7.5410156,9.78125 c -0.6163783,-2e-7 -1.2314184,0.1235371 -1.8007812,0.359375 -0.5692879,0.235806 -1.0914562,0.583643 -1.5273438,1.019531 -0.4358875,0.435887 -0.7837246,0.958055 -1.0195312,1.527344 -0.2358379,0.569362 -0.3593752,1.184403 -0.359375,1.800781 -2e-7,0.616379 0.1235372,1.231419 0.359375,1.800781 0.2358065,0.569288 0.5836438,1.091456 1.0195312,1.527344 0.4358875,0.435887 0.958056,0.783725 1.5273438,1.019532 0.5693628,0.235837 1.1844028,0.359376 1.8007812,0.359374 0.6163785,2e-6 1.2314183,-0.123537 1.8007813,-0.359374 0.5692877,-0.235807 1.0914561,-0.583645 1.5273441,-1.019532 0.435888,-0.435888 0.783725,-0.958056 1.019531,-1.527344 0.235838,-0.569362 0.359375,-1.184402 0.359375,-1.800781 0,-0.616378 -0.123537,-1.231418 -0.359375,-1.800781 C 11.652866,12.11821 11.305029,11.596043 10.869141,11.160156 10.433253,10.724268 9.9110848,10.376431 9.3417969,10.140625 8.7724339,9.9047871 8.1573939,9.7812498 7.5410156,9.78125 Z"
         transform="scale(0.26458333)" />
    </mask>
    <mask
       id="mask-powermask-path-effect1154"
       maskUnits="userSpaceOnUse">
      <path
         transform="scale(0.26458333)"
         d="m 7.5410156,9.78125 c -0.6163783,-2e-7 -1.2314184,0.1235371 -1.8007812,0.359375 -0.5692879,0.235806 -1.0914562,0.583643 -1.5273438,1.019531 -0.4358875,0.435887 -0.7837246,0.958055 -1.0195312,1.527344 -0.2358379,0.569362 -0.3593752,1.184403 -0.359375,1.800781 -2e-7,0.616379 0.1235372,1.231419 0.359375,1.800781 0.2358065,0.569288 0.5836438,1.091456 1.0195312,1.527344 0.4358875,0.435887 0.958056,0.783725 1.5273438,1.019532 0.5693628,0.235837 1.1844028,0.359376 1.8007812,0.359374 0.6163785,2e-6 1.2314183,-0.123537 1.8007813,-0.359374 0.5692877,-0.235807 1.0914561,-0.583645 1.5273441,-1.019532 0.435888,-0.435888 0.783725,-0.958056 1.019531,-1.527344 0.235838,-0.569362 0.359375,-1.184402 0.359375,-1.800781 0,-0.616378 -0.123537,-1.231418 -0.359375,-1.800781 C 11.652866,12.11821 11.305029,11.596043 10.869141,11.160156 10.433253,10.724268 9.9110848,10.376431 9.3417969,10.140625 8.7724339,9.9047871 8.1573939,9.7812498 7.5410156,9.78125 Z"
         inkscape:original="M 7.5410156 9.9257812 C 6.9437912 9.925781 6.3466853 10.04489 5.7949219 10.273438 C 5.2431584 10.501985 4.7367545 10.839417 4.3144531 11.261719 C 3.8921517 11.68402 3.5547197 12.190423 3.3261719 12.742188 C 3.0976241 13.29395 2.9785154 13.891057 2.9785156 14.488281 C 2.9785154 15.085506 3.0976241 15.682612 3.3261719 16.234375 C 3.5547196 16.786138 3.8921517 17.292542 4.3144531 17.714844 C 4.7367545 18.137145 5.2431584 18.474577 5.7949219 18.703125 C 6.3466853 18.931673 6.9437912 19.050782 7.5410156 19.050781 C 8.1382401 19.050782 8.7353459 18.931673 9.2871094 18.703125 C 9.8388729 18.474577 10.345277 18.137145 10.767578 17.714844 C 11.18988 17.292542 11.527312 16.786138 11.755859 16.234375 C 11.984407 15.682612 12.103516 15.085506 12.103516 14.488281 C 12.103516 13.891057 11.984407 13.293951 11.755859 12.742188 C 11.527312 12.190423 11.18988 11.68402 10.767578 11.261719 C 10.345277 10.839417 9.8388729 10.501985 9.2871094 10.273438 C 8.7353459 10.04489 8.13824 9.925781 7.5410156 9.9257812 z "
         inkscape:radius="0.14405894"
         sodipodi:type="inkscape:offset"
         style="display:inline;fill:none;fill-opacity:1;stroke:#070707;stroke-width:0.4;stroke-miterlimit:4;stroke-dasharray:none;stroke-opacity:1"
         id="path1220" />
      <path
         d="M 0.84422729,0.69683129 H 6.0193145 V 5.0781687 H 0.84422729 Z"
         style="fill:#ffffff;fill-opacity:1"
         id="mask-powermask-path-effect1213_box" />
      <path
         d="M 0.84422729,0.69683129 H 6.0193145 V 5.0781687 H 0.84422729 Z"
         style="fill:#ffffff;fill-opacity:1"
         id="mask-powermask-path-effect1154_box" />
      <path
         id="path1222"
         style="fill:#ffffff;fill-opacity:1"
         d="M 0.84422729,0.69683129 H 6.0193145 V 5.0781687 H 0.84422729 Z" />
    </mask>
    <filter
       y="-50"
       x="-50"
       width="100"
       height="100"
       style="color-interpolation-filters:sRGB"
       inkscape:label="filtermask-powermask-path-effect1213"
       id="mask-powermask-path-effect1213_inverse">
      <feColorMatrix
         result="fbSourceGraphic"
         type="saturate"
         values="1"
         id="mask-powermask-path-effect1213_primitive1" />
      <feColorMatrix
         in="fbSourceGraphic"
         values="-1 0 0 0 1 0 -1 0 0 1 0 0 -1 0 1 0 0 0 1 0 "
         id="mask-powermask-path-effect1213_primitive2" />
    </filter>
    <filter
       y="-50"
       x="-50"
       width="100"
       height="100"
       style="color-interpolation-filters:sRGB"
       inkscape:label="filtermask-powermask-path-effect1230"
       id="mask-powermask-path-effect1230_inverse">
      <feColorMatrix
         result="fbSourceGraphic"
         type="saturate"
         values="1"
         id="mask-powermask-path-effect1230_primitive1" />
      <feColorMatrix
         in="fbSourceGraphic"
         values="-1 0 0 0 1 0 -1 0 0 1 0 0 -1 0 1 0 0 0 1 0 "
         id="mask-powermask-path-effect1230_primitive2" />
    </filter>
  </defs>
  <sodipodi:namedview
     inkscape:window-maximized="0"
     inkscape:window-y="23"
     inkscape:window-x="2240"
     inkscape:window-height="1209"
     inkscape:window-width="1600"
     inkscape:guide-bbox="true"
     showguides="true"
     inkscape:pagecheckerboard="true"
     units="px"
     showgrid="false"
     inkscape:document-rotation="0"
     inkscape:current-layer="layer4"
     inkscape:document-units="px"
     inkscape:cy="11"
     inkscape:cx="11.454724"
     inkscape:zoom="46.181818"
     inkscape:pageshadow="2"
     inkscape:pageopacity="0.0"
     borderopacity="1.0"
     bordercolor="#666666"
     pagecolor="#ffffff"
     id="base">
    <sodipodi:guide
       id="guide10"
       orientation="1,0"
       position="0.79248163,3.9456656" />
    <sodipodi:guide
       id="guide12"
       orientation="1,0"
       position="5.0227707,3.7056888" />
    <sodipodi:guide
       id="guide14"
       orientation="0,-1"
       position="1.8974912,5.0283519" />
    <sodipodi:guide
       id="guide16"
       orientation="0,-1"
       position="2.0091083,0.7980625" />
  </sodipodi:namedview>
  <metadata
     id="metadata5">
    <rdf:RDF>
      <cc:Work
         rdf:about="">
        <dc:format>image/svg+xml</dc:format>
        <dc:type
           rdf:resource="http://purl.org/dc/dcmitype/StillImage" />
        <dc:title></dc:title>
      </cc:Work>
    </rdf:RDF>
  </metadata>
  <g
     id="layer1"
     inkscape:groupmode="layer"
     inkscape:label="Layer 1">
    <path
       inkscape:original-d="M 4.5,4 C 4.2229996,4 4,4.2229984 4,4.5 v 6 C 4,10.777 4.2229984,11 4.5,11 H 7.9707031 V 7.9140625 c 0,-0.2770016 0.2229996,-0.5 0.5,-0.5 H 14 V 4.5 C 14,4.2229996 13.777002,4 13.5,4 Z"
       inkscape:path-effect="#path-effect1230"
       mask="url(#mask-powermask-path-effect1230)"
       inkscape:connector-curvature="0"
       transform="scale(0.26458333)"
       d="M 4.5,4 C 4.2229996,4 4,4.2229984 4,4.5 v 6 C 4,10.777 4.2229984,11 4.5,11 H 7.9707031 V 7.9140625 c 0,-0.2770016 0.2229996,-0.5 0.5,-0.5 H 14 V 4.5 C 14,4.2229996 13.777002,4 13.5,4 Z"
       style="fill:#0000ff;fill-opacity:0;fill-rule:evenodd;stroke:#ffffff;stroke-width:2.00033;stroke-miterlimit:4;stroke-dasharray:none;stroke-opacity:1"
       id="rect18" />
  </g>
  <g
     style="display:inline"
     inkscape:label="Layer 0"
     id="layer2"
     inkscape:groupmode="layer">
    <path
       mask="url(#mask-powermask-path-effect1154)"
       inkscape:connector-curvature="0"
       inkscape:original-d="m 2.241146,1.9614583 h 2.3812499 c 0.07329,0 0.1322916,0.059002 0.1322916,0.1322917 v 1.5875 c 0,0.07329 -0.059002,0.1322917 -0.1322916,0.1322917 H 2.241146 c -0.07329,0 -0.1322917,-0.059002 -0.1322917,-0.1322917 v -1.5875 c 0,-0.07329 0.059002,-0.1322917 0.1322917,-0.1322917 z"
       inkscape:path-effect="#path-effect965;#path-effect1154;#path-effect1213"
       clip-path="url(#clipPath961)"
       d="m 2.241146,1.9614583 h 2.3812499 c 0.07329,0 0.1322916,0.059002 0.1322916,0.1322917 v 1.5875 c 0,0.07329 -0.059002,0.1322917 -0.1322916,0.1322917 H 2.241146 c -0.07329,0 -0.1322917,-0.059002 -0.1322917,-0.1322917 v -1.5875 c 0,-0.07329 0.059002,-0.1322917 0.1322917,-0.1322917 z"
       style="fill:#0000ff;fill-opacity:0;fill-rule:evenodd;stroke:#ffffff;stroke-width:0.529254;stroke-miterlimit:4;stroke-dasharray:none;stroke-opacity:1"
       id="rect18-6" />
  </g>
  <g
     sodipodi:insensitive="true"
     style="display:inline"
     inkscape:label="Layer 2"
     id="layer3"
     inkscape:groupmode="layer">
    <path
       inkscape:connector-curvature="0"
       transform="scale(0.26458333)"
       d="m 7.5410156,9.9882812 a 4.4999981,4.4999981 0 0 0 -4.5,4.4999998 4.4999981,4.4999981 0 0 0 4.5,4.5 4.4999981,4.4999981 0 0 0 4.5000004,-4.5 A 4.4999981,4.4999981 0 0 0 7.5410156,9.9882812 Z M 9.2421875,12.519531 10.267578,13.611328 6.7832031,16.912109 4.5839844,14.609375 5.6699219,13.576172 6.84375,14.792969 Z"
       style="fill:#ffffff;fill-opacity:1;stroke:#ffffff;stroke-width:0;stroke-miterlimit:4;stroke-dasharray:none;stroke-opacity:1"
       id="path896" />
  </g>
  <g
     inkscape:label="Layer 3"
     id="layer4"
     inkscape:groupmode="layer" />
</svg>
